{
    "asset" : {
        "generator" : "Khronos glTF Blender I/O v1.6.16",
        "version" : "2.0"
    },
    "scene" : 0,
    "scenes" : [
        {
            "name" : "Scene",
            "nodes" : [
                0,
                1,
                2,
                3,
                4,
                5,
                6,
                7
            ]
        }
    ],
    "nodes" : [
        {
            "mesh" : 0,
            "name" : "Cube",
            "scale" : [
                1,
                1,
                2.1994102001190186
            ],
            "translation" : [
                0,
                0,
                5.387154579162598
            ]
        },
        {
            "name" : "Light",
            "rotation" : [
                0.16907575726509094,
                0.7558803558349609,
                -0.27217137813568115,
                0.570947527885437
            ],
            "translation" : [
                4.076245307922363,
                5.903861999511719,
                -1.0054539442062378
            ]
        },
        {
            "name" : "Camera",
            "rotation" : [
                0.483536034822464,
                0.33687159419059753,
                -0.20870360732078552,
                0.7804827094078064
            ],
            "translation" : [
                7.358891487121582,
                4.958309173583984,
                6.925790786743164
            ]
        },
        {
            "mesh" : 1,
            "name" : "\u5e73\u9762",
            "rotation" : [
                0,
                0,
                -0.7071067690849304,
                0.7071068286895752
            ],
            "translation" : [
                1.1612021923065186,
                0,
                0
            ]
        },
        {
            "mesh" : 2,
            "name" : "\u5186\u67f1",
            "rotation" : [
                0,
                0,
                -0.7071067690849304,
                0.7071068286895752
            ],
            "scale" : [
                1.2049593925476074,
                0.09505683183670044,
                1.2049593925476074
            ],
            "translation" : [
                0.8870849609375,
                -2.6967387199401855,
                -0.21290040016174316
            ]
        },
        {
            "mesh" : 3,
            "name" : "\u5186\u67f1.001",
            "rotation" : [
                0,
                0,
                -0.7071067690849304,
                0.7071068286895752
            ],
            "scale" : [
                1.2049593925476074,
                0.09505683183670044,
                1.2049593925476074
            ],
            "translation" : [
                -0.9225481748580933,
                -2.6967387199401855,
                -0.21290040016174316
            ]
        },
        {
            "mesh" : 4,
            "name" : "\u5186\u67f1.002",
            "rotation" : [
                0,
                0,
                -0.7071067690849304,
                0.7071068286895752
            ],
            "scale" : [
                1.2049593925476074,
                0.09505683183670044,
                1.2049593925476074
            ],
            "translation" : [
                0.8870849609375,
                -2.6967387199401855,
                -8.024951934814453
            ]
        },
        {
            "mesh" : 5,
            "name" : "\u5186\u67f1.003",
            "rotation" : [
                0,
                0,
                -0.7071067690849304,
                0.7071068286895752
            ],
            "scale" : [
                1.2049593925476074,
                0.09505683183670044,
                1.2049593925476074
            ],
            "translation" : [
                -0.9225481748580933,
                -2.6967387199401855,
                -8.024951934814453
            ]
        }
    ],
    "materials" : [
        {
            "doubleSided" : true,
            "name" : "Material",
            "pbrMetallicRoughness" : {
                "baseColorFactor" : [
                    0.800000011920929,
                    0.800000011920929,
                    0.800000011920929,
                    1
                ],
                "metallicFactor" : 0,
                "roughnessFactor" : 0.4000000059604645
            }
        }
    ],
    "meshes" : [
        {
            "name" : "Cube",
            "primitives" : [
                {
                    "attributes" : {
                        "POSITION" : 0,
                        "NORMAL" : 1,
                        "TEXCOORD_0" : 2
                    },
                    "indices" : 3,
                    "material" : 0
                }
            ]
        },
        {
            "name" : "\u5e73\u9762",
            "primitives" : [
                {
                    "attributes" : {
                        "POSITION" : 4,
                        "NORMAL" : 5,
                        "TEXCOORD_0" : 6
                    },
                    "indices" : 7
                }
            ]
        },
        {
            "name" : "\u5186\u67f1.001",
            "primitives" : [
                {
                    "attributes" : {
                        "POSITION" : 8,
                        "NORMAL" : 9,
                        "TEXCOORD_0" : 10
                    },
                    "indices" : 11
                }
            ]
        },
        {
            "name" : "\u5186\u67f1.003",
            "primitives" : [
                {
                    "attributes" : {
                        "POSITION" : 12,
                        "NORMAL" : 13,
                        "TEXCOORD_0" : 14
                    },
                    "indices" : 11
                }
            ]
        },
        {
            "name" : "\u5186\u67f1.004",
            "primitives" : [
                {
                    "attributes" : {
                        "POSITION" : 15,
                        "NORMAL" : 16,
                        "TEXCOORD_0" : 17
                    },
                    "indices" : 11
                }
            ]
        },
        {
            "name" : "\u5186\u67f1.005",
            "primitives" : [
                {
                    "attributes" : {
                        "POSITION" : 18,
                        "NORMAL" : 19,
                        "TEXCOORD_0" : 20
                    },
                    "indices" : 11
                }
            ]
        }
    ],
    "accessors" : [
        {
            "bufferView" : 0,
            "componentType" : 5126,
            "count" : 743,
            "max" : [
                1.1965157985687256,
                2.5266942977905273,
                2.5705902576446533
            ],
            "min" : [
                -1.2322478294372559,
                -4.120697021484375,
                -1.6513105630874634
            ],
            "type" : "VEC3"
        },
        {
            "bufferView" : 1,
            "componentType" : 5126,
            "count" : 743,
            "type" : "VEC3"
        },
        {
            "bufferView" : 2,
            "componentType" : 5126,
            "count" : 743,
            "type" : "VEC2"
        },
        {
            "bufferView" : 3,
            "componentType" : 5123,
            "count" : 1362,
            "type" : "SCALAR"
        },
        {
            "bufferView" : 4,
            "componentType" : 5126,
            "count" : 358,
            "max" : [
                2.3946611881256104,
                6.320105683244037e-08,
                1
            ],
            "min" : [
                -1.0000001192092896,
                -2.39813494682312,
                -7.815202713012695
            ],
            "type" : "VEC3"
        },
        {
            "bufferView" : 5,
            "componentType" : 5126,
            "count" : 358,
            "type" : "VEC3"
        },
        {
            "bufferView" : 6,
            "componentType" : 5126,
            "count" : 358,
            "type" : "VEC2"
        },
        {
            "bufferView" : 7,
            "componentType" : 5123,
            "count" : 714,
            "type" : "SCALAR"
        },
        {
            "bufferView" : 8,
            "componentType" : 5126,
            "count" : 820,
            "max" : [
                1,
                0.9999998807907104,
                1
            ],
            "min" : [
                -1,
                -1.0000009536743164,
                -1
            ],
            "type" : "VEC3"
        },
        {
            "bufferView" : 9,
            "componentType" : 5126,
            "count" : 820,
            "type" : "VEC3"
        },
        {
            "bufferView" : 10,
            "componentType" : 5126,
            "count" : 820,
            "type" : "VEC2"
        },
        {
            "bufferView" : 11,
            "componentType" : 5123,
            "count" : 1500,
            "type" : "SCALAR"
        },
        {
            "bufferView" : 12,
            "componentType" : 5126,
            "count" : 820,
            "max" : [
                1,
                0.9999998807907104,
                1
            ],
            "min" : [
                -1,
                -1.0000009536743164,
                -1
            ],
            "type" : "VEC3"
        },
        {
            "bufferView" : 13,
            "componentType" : 5126,
            "count" : 820,
            "type" : "VEC3"
        },
        {
            "bufferView" : 14,
            "componentType" : 5126,
            "count" : 820,
            "type" : "VEC2"
        },
        {
            "bufferView" : 15,
            "componentType" : 5126,
            "count" : 820,
            "max" : [
                1,
                0.9999998807907104,
                1
            ],
            "min" : [
                -1,
                -1.0000009536743164,
                -1
            ],
            "type" : "VEC3"
        },
        {
            "bufferView" : 16,
            "componentType" : 5126,
            "count" : 820,
            "type" : "VEC3"
        },
        {
            "bufferView" : 17,
            "componentType" : 5126,
            "count" : 820,
            "type" : "VEC2"
        },
        {
            "bufferView" : 18,
            "componentType" : 5126,
            "count" : 820,
            "max" : [
                1,
                0.9999998807907104,
                1
            ],
            "min" : [
                -1,
                -1.0000009536743164,
                -1
            ],
            "type" : "VEC3"
        },
        {
            "bufferView" : 19,
            "componentType" : 5126,
            "count" : 820,
            "type" : "VEC3"
        },
        {
            "bufferView" : 20,
            "componentType" : 5126,
            "count" : 820,
            "type" : "VEC2"
        }
    ],
    "bufferViews" : [
        {
            "buffer" : 0,
            "byteLength" : 8916,
            "byteOffset" : 0
        },
        {
            "buffer" : 0,
            "byteLength" : 8916,
            "byteOffset" : 8916
        },
        {
            "buffer" : 0,
            "byteLength" : 5944,
            "byteOffset" : 17832
        },
        {
            "buffer" : 0,
            "byteLength" : 2724,
            "byteOffset" : 23776
        },
        {
            "buffer" : 0,
            "byteLength" : 4296,
            "byteOffset" : 26500
        },
        {
            "buffer" : 0,
            "byteLength" : 4296,
            "byteOffset" : 30796
        },
        {
            "buffer" : 0,
            "byteLength" : 2864,
            "byteOffset" : 35092
        },
        {
            "buffer" : 0,
            "byteLength" : 1428,
            "byteOffset" : 37956
        },
        {
            "buffer" : 0,
            "byteLength" : 9840,
            "byteOffset" : 39384
        },
        {
            "buffer" : 0,
            "byteLength" : 9840,
            "byteOffset" : 49224
        },
        {
            "buffer" : 0,
            "byteLength" : 6560,
            "byteOffset" : 59064
        },
        {
            "buffer" : 0,
            "byteLength" : 3000,
            "byteOffset" : 65624
        },
        {
            "buffer" : 0,
            "byteLength" : 9840,
            "byteOffset" : 68624
        },
        {
            "buffer" : 0,
            "byteLength" : 9840,
            "byteOffset" : 78464
        },
        {
            "buffer" : 0,
            "byteLength" : 6560,
            "byteOffset" : 88304
        },
        {
            "buffer" : 0,
            "byteLength" : 9840,
            "byteOffset" : 94864
        },
        {
            "buffer" : 0,
            "byteLength" : 9840,
            "byteOffset" : 104704
        },
        {
            "buffer" : 0,
            "byteLength" : 6560,
            "byteOffset" : 114544
        },
        {
            "buffer" : 0,
            "byteLength" : 9840,
            "byteOffset" : 121104
        },
        {
            "buffer" : 0,
            "byteLength" : 9840,
            "byteOffset" : 130944
        },
        {
            "buffer" : 0,
            "byteLength" : 6560,
            "byteOffset" : 140784
        }
    ],
    "buffers" : [
        {
            "byteLength" : 147344,
            "uri" : "data:application/octet-stream;base64,"
        }
    ]
}
