{
    "asset" : {
        "generator" : "Khronos glTF Blender I/O v1.6.16",
        "version" : "2.0"
    },
    "scene" : 0,
    "scenes" : [
        {
            "name" : "Scene",
            "nodes" : [
                0,
                1,
                2,
                3,
                4,
                5,
                6,
                7,
                8
            ]
        }
    ],
    "nodes" : [
        {
            "mesh" : 0,
            "name" : "Cube",
            "scale" : [
                0.5334956645965576,
                0.10863616317510605,
                1.6090667247772217
            ]
        },
        {
            "name" : "Light",
            "rotation" : [
                0.16907575726509094,
                0.7558803558349609,
                -0.27217137813568115,
                0.570947527885437
            ],
            "translation" : [
                4.076245307922363,
                5.903861999511719,
                -1.0054539442062378
            ]
        },
        {
            "name" : "Camera",
            "rotation" : [
                0.483536034822464,
                0.33687159419059753,
                -0.20870360732078552,
                0.7804827094078064
            ],
            "translation" : [
                7.358891487121582,
                4.958309173583984,
                6.925790786743164
            ]
        },
        {
            "mesh" : 1,
            "name" : "\u5186\u67f1",
            "rotation" : [
                0.05836427956819534,
                0,
                0,
                0.9982953667640686
            ],
            "scale" : [
                0.16948406398296356,
                1.659074306488037,
                0.16937683522701263
            ],
            "translation" : [
                0,
                2.2539901733398438,
                -2.103724241256714
            ]
        },
        {
            "mesh" : 2,
            "name" : "\u7acb\u65b9\u4f53",
            "scale" : [
                0.15206466615200043,
                0.1455438733100891,
                0.060118772089481354
            ],
            "translation" : [
                0,
                0.5377897620201111,
                -2.3067474365234375
            ]
        },
        {
            "mesh" : 3,
            "name" : "\u5186\u67f1.002",
            "rotation" : [
                0,
                0,
                -0.7071067690849304,
                0.7071068286895752
            ],
            "scale" : [
                0.40830665826797485,
                0.175696462392807,
                0.40830665826797485
            ],
            "translation" : [
                0,
                0.017419181764125824,
                -2.303607940673828
            ]
        },
        {
            "mesh" : 4,
            "name" : "\u5186\u67f1.001",
            "rotation" : [
                0,
                0,
                -0.7071067690849304,
                0.7071068286895752
            ],
            "scale" : [
                0.40830665826797485,
                0.175696462392807,
                0.40830665826797485
            ],
            "translation" : [
                0,
                0.017419181764125824,
                1.5900821685791016
            ]
        },
        {
            "mesh" : 5,
            "name" : "\u5186\u67f1.003",
            "rotation" : [
                0.5,
                0.5,
                -0.5,
                0.4999999701976776
            ],
            "scale" : [
                0.04410610347986221,
                0.46547093987464905,
                0.04410610347986221
            ],
            "translation" : [
                0.009450703859329224,
                0,
                1.5362393856048584
            ]
        },
        {
            "mesh" : 6,
            "name" : "\u5186\u67f1.004",
            "rotation" : [
                0,
                0,
                -0.7071067690849304,
                0.7071068286895752
            ],
            "scale" : [
                0.18798747658729553,
                0.7208276987075806,
                0.18798747658729553
            ],
            "translation" : [
                0,
                3.8704044818878174,
                -1.9107060432434082
            ]
        }
    ],
    "materials" : [
        {
            "doubleSided" : true,
            "name" : "Material",
            "pbrMetallicRoughness" : {
                "baseColorFactor" : [
                    0.800000011920929,
                    0.800000011920929,
                    0.800000011920929,
                    1
                ],
                "metallicFactor" : 0,
                "roughnessFactor" : 0.4000000059604645
            }
        }
    ],
    "meshes" : [
        {
            "name" : "Cube",
            "primitives" : [
                {
                    "attributes" : {
                        "POSITION" : 0,
                        "NORMAL" : 1,
                        "TEXCOORD_0" : 2
                    },
                    "indices" : 3,
                    "material" : 0
                }
            ]
        },
        {
            "name" : "\u5186\u67f1",
            "primitives" : [
                {
                    "attributes" : {
                        "POSITION" : 4,
                        "NORMAL" : 5,
                        "TEXCOORD_0" : 6
                    },
                    "indices" : 7
                }
            ]
        },
        {
            "name" : "\u7acb\u65b9\u4f53",
            "primitives" : [
                {
                    "attributes" : {
                        "POSITION" : 8,
                        "NORMAL" : 9,
                        "TEXCOORD_0" : 10
                    },
                    "indices" : 11
                }
            ]
        },
        {
            "name" : "\u5186\u67f1.003",
            "primitives" : [
                {
                    "attributes" : {
                        "POSITION" : 12,
                        "NORMAL" : 13,
                        "TEXCOORD_0" : 14
                    },
                    "indices" : 15
                }
            ]
        },
        {
            "name" : "\u5186\u67f1.004",
            "primitives" : [
                {
                    "attributes" : {
                        "POSITION" : 16,
                        "NORMAL" : 17,
                        "TEXCOORD_0" : 18
                    },
                    "indices" : 15
                }
            ]
        },
        {
            "name" : "\u5186\u67f1.005",
            "primitives" : [
                {
                    "attributes" : {
                        "POSITION" : 19,
                        "NORMAL" : 20,
                        "TEXCOORD_0" : 21
                    },
                    "indices" : 22
                }
            ]
        },
        {
            "name" : "\u5186\u67f1.006",
            "primitives" : [
                {
                    "attributes" : {
                        "POSITION" : 23,
                        "NORMAL" : 24,
                        "TEXCOORD_0" : 25
                    },
                    "indices" : 26
                }
            ]
        }
    ],
    "accessors" : [
        {
            "bufferView" : 0,
            "componentType" : 5126,
            "count" : 498,
            "max" : [
                1,
                13.96938419342041,
                1.2714409828186035
            ],
            "min" : [
                -1,
                -1,
                -1.3230369091033936
            ],
            "type" : "VEC3"
        },
        {
            "bufferView" : 1,
            "componentType" : 5126,
            "count" : 498,
            "type" : "VEC3"
        },
        {
            "bufferView" : 2,
            "componentType" : 5126,
            "count" : 498,
            "type" : "VEC2"
        },
        {
            "bufferView" : 3,
            "componentType" : 5123,
            "count" : 1032,
            "type" : "SCALAR"
        },
        {
            "bufferView" : 4,
            "componentType" : 5126,
            "count" : 384,
            "max" : [
                1.0109518766403198,
                1.010317087173462,
                1.0109518766403198
            ],
            "min" : [
                -1.0109518766403198,
                -1.010317087173462,
                -1.0109518766403198
            ],
            "type" : "VEC3"
        },
        {
            "bufferView" : 5,
            "componentType" : 5126,
            "count" : 384,
            "type" : "VEC3"
        },
        {
            "bufferView" : 6,
            "componentType" : 5126,
            "count" : 384,
            "type" : "VEC2"
        },
        {
            "bufferView" : 7,
            "componentType" : 5123,
            "count" : 744,
            "type" : "SCALAR"
        },
        {
            "bufferView" : 8,
            "componentType" : 5126,
            "count" : 80,
            "max" : [
                -0.017241379246115685,
                1,
                1
            ],
            "min" : [
                -2.962068557739258,
                -4.058656215667725,
                -1
            ],
            "type" : "VEC3"
        },
        {
            "bufferView" : 9,
            "componentType" : 5126,
            "count" : 80,
            "type" : "VEC3"
        },
        {
            "bufferView" : 10,
            "componentType" : 5126,
            "count" : 80,
            "type" : "VEC2"
        },
        {
            "bufferView" : 11,
            "componentType" : 5123,
            "count" : 150,
            "type" : "SCALAR"
        },
        {
            "bufferView" : 12,
            "componentType" : 5126,
            "count" : 472,
            "max" : [
                1,
                1,
                1
            ],
            "min" : [
                -0.9999999403953552,
                -1,
                -1
            ],
            "type" : "VEC3"
        },
        {
            "bufferView" : 13,
            "componentType" : 5126,
            "count" : 472,
            "type" : "VEC3"
        },
        {
            "bufferView" : 14,
            "componentType" : 5126,
            "count" : 472,
            "type" : "VEC2"
        },
        {
            "bufferView" : 15,
            "componentType" : 5123,
            "count" : 888,
            "type" : "SCALAR"
        },
        {
            "bufferView" : 16,
            "componentType" : 5126,
            "count" : 472,
            "max" : [
                1,
                1,
                1
            ],
            "min" : [
                -0.9999999403953552,
                -1,
                -1
            ],
            "type" : "VEC3"
        },
        {
            "bufferView" : 17,
            "componentType" : 5126,
            "count" : 472,
            "type" : "VEC3"
        },
        {
            "bufferView" : 18,
            "componentType" : 5126,
            "count" : 472,
            "type" : "VEC2"
        },
        {
            "bufferView" : 19,
            "componentType" : 5126,
            "count" : 192,
            "max" : [
                1,
                1,
                1
            ],
            "min" : [
                -1,
                -1,
                -1
            ],
            "type" : "VEC3"
        },
        {
            "bufferView" : 20,
            "componentType" : 5126,
            "count" : 192,
            "type" : "VEC3"
        },
        {
            "bufferView" : 21,
            "componentType" : 5126,
            "count" : 192,
            "type" : "VEC2"
        },
        {
            "bufferView" : 22,
            "componentType" : 5123,
            "count" : 372,
            "type" : "SCALAR"
        },
        {
            "bufferView" : 23,
            "componentType" : 5126,
            "count" : 726,
            "max" : [
                1.2983660697937012,
                2.3215789794921875,
                1.298362374305725
            ],
            "min" : [
                -1.2983614206314087,
                -2.3530449867248535,
                -1.2983628511428833
            ],
            "type" : "VEC3"
        },
        {
            "bufferView" : 24,
            "componentType" : 5126,
            "count" : 726,
            "type" : "VEC3"
        },
        {
            "bufferView" : 25,
            "componentType" : 5126,
            "count" : 726,
            "type" : "VEC2"
        },
        {
            "bufferView" : 26,
            "componentType" : 5123,
            "count" : 1524,
            "type" : "SCALAR"
        }
    ],
    "bufferViews" : [
        {
            "buffer" : 0,
            "byteLength" : 5976,
            "byteOffset" : 0
        },
        {
            "buffer" : 0,
            "byteLength" : 5976,
            "byteOffset" : 5976
        },
        {
            "buffer" : 0,
            "byteLength" : 3984,
            "byteOffset" : 11952
        },
        {
            "buffer" : 0,
            "byteLength" : 2064,
            "byteOffset" : 15936
        },
        {
            "buffer" : 0,
            "byteLength" : 4608,
            "byteOffset" : 18000
        },
        {
            "buffer" : 0,
            "byteLength" : 4608,
            "byteOffset" : 22608
        },
        {
            "buffer" : 0,
            "byteLength" : 3072,
            "byteOffset" : 27216
        },
        {
            "buffer" : 0,
            "byteLength" : 1488,
            "byteOffset" : 30288
        },
        {
            "buffer" : 0,
            "byteLength" : 960,
            "byteOffset" : 31776
        },
        {
            "buffer" : 0,
            "byteLength" : 960,
            "byteOffset" : 32736
        },
        {
            "buffer" : 0,
            "byteLength" : 640,
            "byteOffset" : 33696
        },
        {
            "buffer" : 0,
            "byteLength" : 300,
            "byteOffset" : 34336
        },
        {
            "buffer" : 0,
            "byteLength" : 5664,
            "byteOffset" : 34636
        },
        {
            "buffer" : 0,
            "byteLength" : 5664,
            "byteOffset" : 40300
        },
        {
            "buffer" : 0,
            "byteLength" : 3776,
            "byteOffset" : 45964
        },
        {
            "buffer" : 0,
            "byteLength" : 1776,
            "byteOffset" : 49740
        },
        {
            "buffer" : 0,
            "byteLength" : 5664,
            "byteOffset" : 51516
        },
        {
            "buffer" : 0,
            "byteLength" : 5664,
            "byteOffset" : 57180
        },
        {
            "buffer" : 0,
            "byteLength" : 3776,
            "byteOffset" : 62844
        },
        {
            "buffer" : 0,
            "byteLength" : 2304,
            "byteOffset" : 66620
        },
        {
            "buffer" : 0,
            "byteLength" : 2304,
            "byteOffset" : 68924
        },
        {
            "buffer" : 0,
            "byteLength" : 1536,
            "byteOffset" : 71228
        },
        {
            "buffer" : 0,
            "byteLength" : 744,
            "byteOffset" : 72764
        },
        {
            "buffer" : 0,
            "byteLength" : 8712,
            "byteOffset" : 73508
        },
        {
            "buffer" : 0,
            "byteLength" : 8712,
            "byteOffset" : 82220
        },
        {
            "buffer" : 0,
            "byteLength" : 5808,
            "byteOffset" : 90932
        },
        {
            "buffer" : 0,
            "byteLength" : 3048,
            "byteOffset" : 96740
        }
    ],
    "buffers" : [
        {
            "byteLength" : 99788,
            "uri" : "data:application/octet-stream;base64,"
        }
    ]
}
